<?xml version="1.0" encoding="UTF-8" standalone="no"?>
<svg
   version="1.1"
   width="14"
   height="14"
   viewbox="0 0 14 14"
   id="svg6"
   sodipodi:docname="home.svg"
   inkscape:version="1.1.1 (3bf5ae0d25, 2021-09-20)"
   xmlns:inkscape="http://www.inkscape.org/namespaces/inkscape"
   xmlns:sodipodi="http://sodipodi.sourceforge.net/DTD/sodipodi-0.dtd"
   xmlns="http://www.w3.org/2000/svg"
   xmlns:svg="http://www.w3.org/2000/svg">
  <defs
     id="defs10" />
  <sodipodi:namedview
     id="namedview8"
     pagecolor="#505050"
     bordercolor="#eeeeee"
     borderopacity="1"
     inkscape:pageshadow="0"
     inkscape:pageopacity="0"
     inkscape:pagecheckerboard="0"
     showgrid="false"
     inkscape:zoom="32.526912"
     inkscape:cx="1.2758666"
     inkscape:cy="4.9343756"
     inkscape:window-width="1920"
     inkscape:window-height="1027"
     inkscape:window-x="-8"
     inkscape:window-y="-8"
     inkscape:window-maximized="1"
     inkscape:current-layer="svg6" />
  <path
     d="M 6.9854702,0 C 3.1277649,0 0,3.1277649 0,6.9863278 c 0,3.0865942 2.0015468,5.7048592 4.7776366,6.6290792 0.3495309,0.0639 0.4769058,-0.151821 0.4769058,-0.337095 0,-0.165544 -0.006,-0.605138 -0.00945,-1.187975 C 3.3018723,12.512347 2.8918697,11.15368 2.8918697,11.15368 2.5740761,10.346971 2.1160403,10.132106 2.1160403,10.132106 1.4817385,9.6985161 2.1640766,9.7070939 2.1640766,9.7070939 2.8652826,9.7568375 3.2341134,10.42717 3.2341134,10.42717 3.8572643,11.494633 4.8694025,11.186274 5.2673965,11.007864 5.330869,10.55626 5.5109955,10.24833 5.7108507,10.07378 4.1596196,9.8975126 2.5286179,9.2979491 2.5286179,6.6209288 c 0,-0.7625344 0.2723345,-1.3861151 0.7192194,-1.8745997 -0.072049,-0.1766957 -0.3117908,-0.8869084 0.068188,-1.8488682 0,0 0.5866963,-0.1878466 1.9213474,0.7162165 0.5571053,-0.1548228 1.1549525,-0.2324491 1.7489411,-0.2350222 0.59313,0.00254 1.1909772,0.080199 1.7489401,0.2350222 1.3337921,-0.9040631 1.9192031,-0.7162165 1.9192031,-0.7162165 0.381268,0.9619598 0.141528,1.6721725 0.06948,1.8488682 0.447743,0.4884846 0.718362,1.1120653 0.718362,1.8745997 0,2.6838828 -1.6335745,3.2744396 -3.1899517,3.4472762 0.2508903,0.215722 0.4743328,0.642021 0.4743328,1.293907 0,0.933655 -0.00854,1.687183 -0.00854,1.9162 0,0.186989 0.1256596,0.404428 0.4803366,0.336237 C 11.972424,12.688613 13.972255,10.072064 13.972255,6.9863278 13.972255,3.1277649 10.844062,0 6.9854976,0"
     style="fill:#1b1817;fill-opacity:1;fill-rule:evenodd;stroke:none;stroke-width:0.428872"
     id="path847" />
</svg>
