<svg width="32" height="32" version="1.1" viewBox="0 0 32 32" xml:space="preserve" xmlns="http://www.w3.org/2000/svg">
    <path
        d="m1.5 25.95v-1.4c0-0.5799 0.4701-1.05 1.05-1.05h4.9c0.5799 0 1.05 0.4701 1.05 1.05v4.9c0 0.5799-0.4701 1.05-1.05 1.05h-4.9c-0.5799 0-1.05-0.4701-1.05-1.05v-1.4zm6 0.3v-1c0-0.41421-0.33579-0.75-0.75-0.75h-3.5c-0.41421 0-0.75 0.33579-0.75 0.75v3.5c0 0.41421 0.33579 0.75 0.75 0.75h1 2.5c0.41421 0 0.75-0.33579 0.75-0.75v-1zm-4 0.3v-0.6c0-0.24853 0.20147-0.45 0.45-0.45h0.6 1.5c0.24853 0 0.45 0.20147 0.45 0.45v2.1c0 0.24853-0.20147 0.45-0.45 0.45h-0.6-1.5c-0.24853 0-0.45-0.20147-0.45-0.45v-0.6zm6 3.3v-0.05c0-0.16568 0.13431-0.3 0.3-0.3h0.4 1.15c0.08284 0 0.15 0.06716 0.15 0.15v0.2 0.35c0 0.16568-0.13432 0.3-0.3 0.3h-1.55c-0.082843 0-0.15-0.06716-0.15-0.15v-0.2zm3-0.65v-0.4c0-0.16568 0.13432-0.3 0.3-0.3h0.4 1.15c0.08284 0 0.15 0.06716 0.15 0.15v0.7c0 0.08284 0.06716 0.15 0.15 0.15h0.2c0.4933 0 0.65-0.20147 0.65-0.45v-2.25c0-0.16568-0.13432-0.3-0.3-0.3h-0.4-1.15c-0.08284 0-0.15 0.06716-0.15 0.15v0.2 0.5c0 0.08284-0.06716 0.15-0.15 0.15h-0.7c-0.08284 0-0.15-0.06716-0.15-0.15v-0.2-0.5c0-0.08284 0.06716-0.15 0.15-0.15h0.2 0.35c0.16568 0 0.3-0.13432 0.3-0.3v-0.4-1.15c0-0.08284 0.06716-0.15 0.15-0.15h0.7c0.08284 0 0.15 0.06716 0.15 0.15v0.2 0.5c0 0.08284 0.06716 0.15 0.15 0.15h0.2 0.5c0.08284 0 0.15-0.06716 0.15-0.15v-0.2-0.5c0-0.08284 0.06716-0.15 0.15-0.15h0.7c0.08284 0 0.15-0.06716 0.15-0.15v-0.2-0.5c0-0.082842-0.067157-0.15-0.15-0.15h-0.55c-0.16569 0-0.3-0.13431-0.3-0.3v-1.55c0-0.08284-0.06716-0.15-0.15-0.15h-0.7c-0.08284 0-0.15-0.06716-0.15-0.15v-0.2-0.5c0-0.08284 0.06716-0.15 0.15-0.15h0.2 0.5c0.08284 0 0.15 0.06716 0.15 0.15v0.2 0.5c0 0.08284 0.06716 0.15 0.15 0.15h0.2 0.35c0.16568 0 0.3-0.13432 0.3-0.3v-0.4-1c0-0.16569-0.13431-0.3-0.3-0.3h-0.4-1.15c-0.08284 0-0.15-0.06716-0.15-0.15v-0.2-0.35c0-0.16568 0.13432-0.3 0.3-0.3h1.55c0.08284 0 0.15 0.06716 0.15 0.15v0.2 0.35c0 0.16568 0.13432 0.3 0.3 0.3h1.4c0.16568 0 0.3-0.13432 0.3-0.3v-1.55c0-0.08284 0.06716-0.15 0.15-0.15h0.7c0.08284 0 0.15 0.06716 0.15 0.15v0.2c0 0.4933 0.20147 0.65 0.45 0.65h2.25c0.16568 0 0.3 0.13432 0.3 0.3v1.4c0 0.16568 0.13432 0.3 0.3 0.3h0.4 1.15c0.08284 0 0.15-0.06716 0.15-0.15v-0.2-0.5c0-0.08284-0.06716-0.15-0.15-0.15h-0.7c-0.08284 0-0.15-0.06716-0.15-0.15v-0.2c0-0.4933 0.20147-0.65 0.45-0.65h2.4c0.08284 0 0.15-0.06716 0.15-0.15v-0.2c0-0.4933-0.26863-0.65-0.6-0.65h-3.25c-0.08284 0-0.15-0.06716-0.15-0.15v-0.2-0.5c0-0.08284-0.06716-0.15-0.15-0.15h-0.7c-0.08284 0-0.15 0.06716-0.15 0.15v0.7c0 0.082843-0.067158 0.15-0.15 0.15h-0.7c-0.08284 0-0.15-0.06716-0.15-0.15v-0.7c0-0.08284-0.06716-0.15-0.15-0.15h-0.7c-0.08284 0-0.15-0.06716-0.15-0.15v-0.55c0-0.16568-0.13432-0.3-0.3-0.3h-1.55c-0.08284 0-0.15-0.06716-0.15-0.15v-0.7c0-0.08284-0.06716-0.15-0.15-0.15h-0.2-0.5c-0.08284 0-0.15-0.06716-0.15-0.15v-0.2-0.35c0-0.16568 0.13432-0.3 0.3-0.3h0.4 1.15c0.08284 0 0.15 0.06716 0.15 0.15v0.2c0 0.4933 0.20147 0.65 0.45 0.65h0.6 1.8c0.08284 0 0.15-0.06716 0.15-0.15v-0.7c0-0.08284 0.06716-0.15 0.15-0.15h0.2 0.5c0.08284 0 0.15-0.06716 0.15-0.15v-0.7c0-0.08284-0.06716-0.15-0.15-0.15h-0.2-0.5c-0.08284 0-0.15-0.06716-0.15-0.15v-0.55c0-0.16568-0.13432-0.3-0.3-0.3h-0.4-1.15c-0.08284 0-0.15 0.06716-0.15 0.15v0.7c0 0.08284 0.06716 0.15 0.15 0.15h0.7c0.08284 0 0.15 0.06716 0.15 0.15v0.7c0 0.08284-0.06716 0.15-0.15 0.15h-0.2-0.5c-0.08284 0-0.15-0.06716-0.15-0.15v-0.2c0-0.4933-0.26863-0.65-0.6-0.65h-3.1c-0.16568 0-0.3 0.13432-0.3 0.3v1.55c0 0.08284-0.06716 0.15-0.15 0.15h-0.2-0.35c-0.16568 0-0.3 0.13432-0.3 0.3v0.4 1.15c0 0.08284-0.06716 0.15-0.15 0.15h-0.7c-0.08284 0-0.15-0.06716-0.15-0.15v-0.2-0.5c0-0.08284-0.06716-0.15-0.15-0.15h-0.55c-0.16568 0-0.3-0.13432-0.3-0.3v-1.55c0-0.08284-0.06716-0.15-0.15-0.15h-0.7c-0.08284 0-0.15-0.06716-0.15-0.15v-0.2-0.5c0-0.08284 0.06716-0.15 0.15-0.15h0.7c0.08284 0 0.15-0.06716 0.15-0.15v-0.55c0-0.16568-0.13432-0.3-0.3-0.3h-0.4-1.15c-0.08284 0-0.15 0.06716-0.15 0.15v0.7c0 0.08284-0.06716 0.15-0.15 0.15h-0.2-0.5c-0.082842 0-0.15 0.06716-0.15 0.15v0.2 0.5c0 0.08284-0.067157 0.15-0.15 0.15h-0.2-0.5c-0.082842 0-0.15 0.06716-0.15 0.15v0.7c0 0.08284-0.067157 0.15-0.15 0.15h-0.2-0.5c-0.082843 0-0.15-0.06716-0.15-0.15v-0.2-0.5c0-0.08284 0.067157-0.15 0.15-0.15h0.2 0.5c0.082843 0 0.15-0.06716 0.15-0.15v-0.2c0-0.4933-0.40294-0.65-0.9-0.65h-1.2-3.75c-0.082843 0-0.15-0.06716-0.15-0.15v-0.7c0-0.08284 0.067157-0.15 0.15-0.15h0.2 0.5c0.082843 0 0.15-0.06716 0.15-0.15v-0.7c0-0.08284 0.067157-0.15 0.15-0.15h0.7c0.082843 0 0.15 0.06716 0.15 0.15v0.7c0 0.08284 0.067157 0.15 0.15 0.15h0.2 0.5c0.082843 0 0.15-0.06716 0.15-0.15v-0.7c0-0.08284 0.067157-0.15 0.15-0.15h0.7c0.082843 0 0.15 0.06716 0.15 0.15v0.55c0 0.16568 0.13431 0.3 0.3 0.3h0.4 1.15c0.082843 0 0.15-0.06716 0.15-0.15v-0.7c0-0.082843-0.067157-0.15-0.15-0.15h-0.7c-0.082843 0-0.15-0.06716-0.15-0.15v-0.2-0.5c0-0.082843 0.067157-0.15 0.15-0.15h0.7c0.082843 0 0.15 0.067157 0.15 0.15v0.7c0 0.08284 0.067157 0.15 0.15 0.15h0.2c0.4933 0 0.65-0.20147 0.65-0.45v-0.6-1.8c0-0.082843 0.067157-0.15 0.15-0.15h0.7c0.08284 0 0.15-0.067157 0.15-0.15v-0.7c0-0.082843 0.067157-0.15 0.15-0.15h0.7c0.08284 0 0.15 0.067157 0.15 0.15v0.2 0.5c0 0.082843 0.067157 0.15 0.15 0.15h0.7c0.08284 0 0.15 0.067157 0.15 0.15v0.2 0.5c0 0.082842 0.06716 0.15 0.15 0.15h0.2 0.35c0.16568 0 0.3-0.13431 0.3-0.3v-0.4-1.15c0-0.082843 0.06716-0.15 0.15-0.15h0.55c0.16568 0 0.3 0.13431 0.3 0.3v0.4 1.15c0 0.082843-0.06716 0.15-0.15 0.15h-0.2-0.35c-0.16568 0-0.3 0.13431-0.3 0.3v0.4 1c0 0.16568 0.13432 0.3 0.3 0.3h1.55c0.08284 0 0.15 0.06716 0.15 0.15v0.2 0.35c0 0.16568 0.13431 0.3 0.3 0.3h0.4 1c0.16568 0 0.3-0.13432 0.3-0.3v-1.4c0-0.16569-0.13432-0.3-0.3-0.3h-1.4c-0.16568 0-0.3-0.13431-0.3-0.3v-0.4-1.15c0-0.082843 0.06716-0.15 0.15-0.15h0.55c0.16568 0 0.3-0.13431 0.3-0.3v-0.4-1.15c0-0.082843 0.06716-0.15 0.15-0.15h0.7c0.08284 0 0.15-0.067157 0.15-0.15v-0.7c0-0.082842-0.067157-0.15-0.15-0.15h-0.7c-0.08284 0-0.15-0.067157-0.15-0.15v-0.2-0.5c0-0.082842-0.067157-0.15-0.15-0.15h-0.7c-0.08284 0-0.15 0.067157-0.15 0.15v0.7c0 0.082843-0.06716 0.15-0.15 0.15h-0.7c-0.08284 0-0.15 0.067157-0.15 0.15v0.2 0.5c0 0.082843-0.06716 0.15-0.15 0.15h-0.7c-0.08284 0-0.15-0.067157-0.15-0.15v-0.2-0.5c0-0.082843-0.067157-0.15-0.15-0.15h-0.7c-0.08284 0-0.15 0.067157-0.15 0.15v0.2c0 0.4933-0.20147 0.65-0.45 0.65h-2.1c-0.24853 0-0.45-0.20147-0.45-0.45v-0.6-1.8c0-0.082843 0.067157-0.15 0.15-0.15h0.55c0.16568 0 0.3 0.13431 0.3 0.3v1.55c0 0.082843 0.067157 0.15 0.15 0.15h0.55c0.16568 0 0.3-0.13431 0.3-0.3v-0.4-1.15c0-0.082843 0.067157-0.15 0.15-0.15h0.7c0.08284 0 0.15 0.067157 0.15 0.15v0.55c0 0.16569 0.13432 0.3 0.3 0.3h1.55c0.08284 0 0.15-0.067157 0.15-0.15v-0.2-0.5c0-0.082843-0.067157-0.15-0.15-0.15h-0.7c-0.08284 0-0.15-0.067157-0.15-0.15v-0.2-0.5c0-0.082842 0.06716-0.15 0.15-0.15h0.2 0.5c0.08284 0 0.15 0.067157 0.15 0.15v0.2 0.35c0 0.16569 0.13432 0.3 0.3 0.3h1.55c0.08284 0 0.15-0.067157 0.15-0.15v-0.2c0-0.4933 0.20147-0.65 0.45-0.65h0.6 1.8c0.08284 0 0.15 0.067157 0.15 0.15v0.7c0 0.082842-0.06716 0.15-0.15 0.15h-0.7c-0.08284 0-0.15 0.067157-0.15 0.15v0.7c0 0.082842-0.06716 0.15-0.15 0.15h-0.7c-0.08284 0-0.15 0.067157-0.15 0.15v0.55c0 0.16569 0.13431 0.3 0.3 0.3h1.55c0.08284 0 0.15 0.067157 0.15 0.15v0.7c0 0.082842 0.06716 0.15 0.15 0.15h0.7c0.08284 0 0.15-0.067157 0.15-0.15v-0.55c0-0.16569 0.13432-0.3 0.3-0.3h1.4c0.16568 0 0.3 0.13431 0.3 0.3v1.4c0 0.16569-0.13432 0.3-0.3 0.3h-1.1c-0.33137 0-0.6 0.26863-0.6 0.6v3.25c0 0.08284 0.06716 0.15 0.15 0.15h0.2c0.4933 0 0.65-0.20147 0.65-0.45v-2.4c0-0.082842 0.067157-0.15 0.15-0.15h0.55c0.16568 0 0.3 0.13431 0.3 0.3v1.4c0 0.16569 0.13431 0.3 0.3 0.3h1.55c0.08284 0 0.15 0.067157 0.15 0.15v0.2 0.35c0 0.16568 0.13432 0.3 0.3 0.3h1.55c0.08284 0 0.15-0.06716 0.15-0.15v-0.2c0-0.4933 0.20147-0.65 0.45-0.65h2.25c0.16568 0 0.3 0.13431 0.3 0.3v1.4c0 0.16568-0.13432 0.3-0.3 0.3h-0.4-1.15c-0.08284 0-0.15-0.06716-0.15-0.15v-0.7c0-0.08284-0.06716-0.15-0.15-0.15h-0.55c-0.16568 0-0.3 0.13432-0.3 0.3v1.55c0 0.08284 0.06716 0.15 0.15 0.15h0.2 0.5c0.08284 0 0.15 0.06716 0.15 0.15v0.55c0 0.16568-0.13432 0.3-0.3 0.3h-0.4-1.15c-0.08284 0-0.15 0.06716-0.15 0.15v0.2 0.5c0 0.08284 0.06716 0.15 0.15 0.15h0.2 0.5c0.08284 0 0.15 0.06716 0.15 0.15v0.2 0.35c0 0.16568 0.13432 0.3 0.3 0.3h0.4 1.15c0.08284 0 0.15-0.06716 0.15-0.15v-0.7c0-0.08284 0.06716-0.15 0.15-0.15h0.2 0.5c0.08284 0 0.15-0.06716 0.15-0.15v-0.7c0-0.08284 0.06716-0.15 0.15-0.15h0.2 0.35c0.16568 0 0.3 0.13432 0.3 0.3v1.4c0 0.16568-0.13432 0.3-0.3 0.3h-0.4-0.85c-0.24853 0-0.45 0.20147-0.45 0.45v2.25c0 0.16568 0.13432 0.3 0.3 0.3h1.4c0.16568 0 0.3 0.13432 0.3 0.3v1.55c0 0.08284-0.06716 0.15-0.15 0.15h-0.2-0.5c-0.08284 0-0.15-0.06716-0.15-0.15v-0.55c0-0.16568-0.13432-0.3-0.3-0.3h-1.55c-0.08284 0-0.15 0.06716-0.15 0.15v0.7c0 0.08284-0.06716 0.15-0.15 0.15h-0.2-0.35c-0.16568 0-0.3 0.13432-0.3 0.3v0.4 1.15c0 0.08284 0.06716 0.15 0.15 0.15h0.2 0.5c0.08284 0 0.15-0.06716 0.15-0.15v-0.2c0-0.4933 0.20147-0.65 0.45-0.65h2.4c0.08284 0 0.15 0.06716 0.15 0.15v0.2c0 0.4933-0.20147 0.65-0.45 0.65h-0.6-1.8c-0.08284 0-0.15 0.06716-0.15 0.15v0.7c0 0.08284 0.06716 0.15 0.15 0.15h0.7c0.08284 0 0.15 0.06716 0.15 0.15v0.55c0 0.16568-0.13432 0.3-0.3 0.3h-1.55c-0.08284 0-0.15 0.06716-0.15 0.15v0.7c0 0.08284 0.06716 0.15 0.15 0.15h0.2 0.5c0.08284 0 0.15 0.06716 0.15 0.15v0.7c0 0.08284 0.06716 0.15 0.15 0.15h0.2 0.5c0.08284 0 0.15-0.06716 0.15-0.15v-0.55c0-0.16568 0.13432-0.3 0.3-0.3h0.4 1c0.16568 0 0.3 0.13432 0.3 0.3v1.55c0 0.08284-0.06716 0.15-0.15 0.15h-0.2-0.5c-0.08284 0-0.15 0.06716-0.15 0.15v0.7c0 0.08284 0.06716 0.15 0.15 0.15h0.2 0.5c0.08284 0 0.15 0.06716 0.15 0.15v0.7c0 0.08284-0.06716 0.15-0.15 0.15h-0.2-0.5c-0.08284 0-0.15-0.06716-0.15-0.15v-0.7c0-0.08284-0.06716-0.15-0.15-0.15h-0.2-0.35c-0.16568 0-0.3 0.13432-0.3 0.3v1.55c0 0.08284-0.06716 0.15-0.15 0.15h-0.7c-0.08284 0-0.15-0.06716-0.15-0.15v-0.7c0-0.08284-0.06716-0.15-0.15-0.15h-0.2-0.5c-0.08284 0-0.15-0.06716-0.15-0.15v-0.2c0-0.4933-0.20147-0.65-0.45-0.65h-0.6-1.8c-0.08284 0-0.15 0.06716-0.15 0.15v0.55c0 0.16568 0.13432 0.3 0.3 0.3h0.4 1.15c0.08284 0 0.15 0.06716 0.15 0.15v0.2c0 0.4933-0.20147 0.65-0.45 0.65h-1.95c-0.33137 0-0.6-0.26863-0.6-0.6v-3.1c0-0.16568-0.13432-0.3-0.3-0.3h-0.4-1.15c-0.08284 0-0.15 0.06716-0.15 0.15v0.7c0 0.08284 0.06716 0.15 0.15 0.15h0.2 0.5c0.08284 0 0.15 0.06716 0.15 0.15v0.2c0 0.4933-0.26863 0.65-0.6 0.65h-3.25c-0.08284 0-0.15 0.06716-0.15 0.15v0.55c0 0.16568-0.13432 0.3-0.3 0.3h-0.4-1.15c-0.08284 0-0.15 0.06716-0.15 0.15v0.7c0 0.08284-0.06716 0.15-0.15 0.15h-0.7c-0.08284 0-0.15-0.06716-0.15-0.15v-0.2-0.5c0-0.08284-0.06716-0.15-0.15-0.15h-0.2-0.5c-0.08284 0-0.15 0.06716-0.15 0.15v0.2 0.5c0 0.08284-0.06716 0.15-0.15 0.15h-0.55c-0.16569 0-0.3-0.13431-0.3-0.3v-0.4zm7-3v-0.4c0-0.16568 0.13432-0.3 0.3-0.3h0.4 1.15c0.08284 0 0.15-0.06716 0.15-0.15v-0.7c0-0.08284-0.06716-0.15-0.15-0.15h-0.7c-0.08284 0-0.15-0.06716-0.15-0.15v-0.7c0-0.08284 0.06716-0.15 0.15-0.15h0.7c0.08284 0 0.15-0.06716 0.15-0.15v-0.7c0-0.08284-0.06716-0.15-0.15-0.15h-0.2-0.5c-0.08284 0-0.15 0.06716-0.15 0.15v0.7c0 0.08284-0.06716 0.15-0.15 0.15h-0.7c-0.08284 0-0.15 0.06716-0.15 0.15v0.55c0 0.16569-0.13432 0.3-0.3 0.3h-1.55c-0.08284 0-0.15 0.06716-0.15 0.15v0.7c0 0.08284 0.06716 0.15 0.15 0.15h0.2 0.35c0.16568 0 0.3 0.13432 0.3 0.3v1.55c0 0.08284 0.06716 0.15 0.15 0.15h0.2 0.35c0.16568 0 0.3-0.13432 0.3-0.3v-0.4zm5 0.65v-0.2c0-0.08284-0.06716-0.15-0.15-0.15h-0.2-0.5c-0.08284 0-0.15 0.06716-0.15 0.15v0.7c0 0.08284 0.06716 0.15 0.15 0.15h0.2 0.5c0.08284 0 0.15-0.06716 0.15-0.15v-0.2zm2 0v-0.2c0-0.08284-0.06716-0.15-0.15-0.15h-0.2-0.5c-0.08284 0-0.15 0.06716-0.15 0.15v0.2 0.5c0 0.08284 0.06716 0.15 0.15 0.15h0.2 0.5c0.08284 0 0.15-0.06716 0.15-0.15v-0.2zm3 0v-0.2c0-0.08284-0.06716-0.15-0.15-0.15h-0.2-0.5c-0.08284 0-0.15 0.06716-0.15 0.15v0.2 0.5c0 0.08284 0.06716 0.15 0.15 0.15h0.2 0.5c0.08284 0 0.15-0.06716 0.15-0.15v-0.2zm-4-3.3v-0.6c0-0.24853-0.20147-0.45-0.45-0.45h-0.6-1.5c-0.24853 0-0.45 0.20147-0.45 0.45v2.1c0 0.24853 0.20147 0.45 0.45 0.45h0.6 1.5c0.24853 0 0.45-0.20147 0.45-0.45v-0.6zm-2 0.3v-0.2c0-0.08284 0.06716-0.15 0.15-0.15h0.7c0.08284 0 0.15 0.06716 0.15 0.15v0.2 0.5c0 0.08284-0.06716 0.15-0.15 0.15h-0.7c-0.08284 0-0.15-0.06716-0.15-0.15l1e-6 -0.2v-0.3zm-5-1v-0.2c0-0.08284-0.06716-0.15-0.15-0.15h-0.2-0.5c-0.08284 0-0.15 0.06716-0.15 0.15v0.7c0 0.08284 0.06716 0.15 0.15 0.15h0.7c0.08284 0 0.15-0.06716 0.15-0.15v-0.2zm2-2.65v-0.4c0-0.16568-0.13432-0.3-0.3-0.3h-1.4c-0.16568 0-0.3 0.13432-0.3 0.3v1.4c0 0.16568 0.13432 0.3 0.3 0.3h1.4c0.16568 0 0.3-0.13432 0.3-0.3v-0.4zm7-1.35v-0.2c0-0.08284-0.06716-0.15-0.15-0.15h-0.7c-0.08284 0-0.15 0.06716-0.15 0.15v0.2 0.5c0 0.08284 0.06716 0.15 0.15 0.15h0.7c0.08284 0 0.15-0.06716 0.15-0.15v-0.2zm0-2v-0.2c0-0.08284-0.06716-0.15-0.15-0.15h-0.7c-0.08284 0-0.15 0.06716-0.15 0.15v0.7c0 0.08284 0.06716 0.15 0.15 0.15h0.7c0.08284 0 0.15-0.06716 0.15-0.15v-0.2zm-6-1v-0.2c0-0.08284-0.06716-0.15-0.15-0.15h-0.7c-0.08284 0-0.15 0.06716-0.15 0.15v0.7c0 0.08284 0.06716 0.15 0.15 0.15h0.7c0.08284 0 0.15-0.06716 0.15-0.15v-0.2zm2-1.3v-0.9c0-0.08284-0.06716-0.15-0.15-0.15h-0.2c-0.4933 0-0.65 0.20147-0.65 0.45v2.4c0 0.08284 0.06716 0.15 0.15 0.15h0.2c0.4933 0 0.65-0.20147 0.65-0.45v-0.6zm2 1.3v-0.2c0-0.08284-0.06716-0.15-0.15-0.15h-0.7c-0.08284 0-0.15 0.06716-0.15 0.15v0.2 0.5c0 0.08284 0.06716 0.15 0.15 0.15h0.7c0.08284 0 0.15-0.06716 0.15-0.15v-0.2zm-12-3v-0.2c0-0.08284 0.06716-0.15 0.15-0.15h0.2 0.5c0.08284 0 0.15-0.06716 0.15-0.15v-0.2-0.5c0-0.08284-0.06716-0.15-0.15-0.15h-0.2-0.5c-0.08284 0-0.15 0.06716-0.15 0.15v0.2 0.5c0 0.08284-0.06716 0.15-0.15 0.15h-0.2-0.5c-0.08284 0-0.15 0.06716-0.15 0.15v0.2 0.5c0 0.08284 0.06716 0.15 0.15 0.15h0.2 0.5c0.08284 0 0.15-0.06716 0.15-0.15v-0.2zm-4-1v-0.2c0-0.08284-0.067157-0.15-0.15-0.15h-0.2-0.5c-0.082843 0-0.15 0.06716-0.15 0.15v0.7c0 0.08284 0.067157 0.15 0.15 0.15h0.7c0.082843 0 0.15-0.06716 0.15-0.15v-0.2zm15-0.65v-0.55c0-0.08284-0.06716-0.15-0.15-0.15h-0.55c-0.16568 0-0.3 0.13432-0.3 0.3v1.55c0 0.08284 0.06716 0.15 0.15 0.15h0.55c0.16568 0 0.3-0.13432 0.3-0.3v-0.4zm-2-0.35v-0.2c0-0.08284-0.06716-0.15-0.15-0.15h-0.7c-0.08284 0-0.15 0.06716-0.15 0.15v0.7c0 0.08284 0.06716 0.15 0.15 0.15h0.2 0.5c0.08284 0 0.15-0.06716 0.15-0.15v-0.2zm-11-1v-0.2c0-0.082843 0.067157-0.15 0.15-0.15h0.7c0.08284 0 0.15-0.067157 0.15-0.15v-0.7c0-0.082843-0.06716-0.15-0.15-0.15h-0.2-0.5c-0.08284 0-0.15-0.067157-0.15-0.15v-0.2-0.5c0-0.082842-0.067157-0.15-0.15-0.15h-0.2c-0.4933 0-0.65 0.20147-0.65 0.45v2.4c0 0.08284 0.06716 0.15 0.15 0.15h0.7c0.08284 0 0.15-0.06716 0.15-0.15v-0.2zm8-1.65v-0.55c0-0.082842-0.067157-0.15-0.15-0.15h-0.7c-0.08284 0-0.15-0.067157-0.15-0.15v-0.7c0-0.082843 0.06716-0.15 0.15-0.15h0.7c0.08284 0 0.15-0.067157 0.15-0.15v-0.7c0-0.082842-0.06716-0.15-0.15-0.15h-0.7c-0.08284 0-0.15 0.067157-0.15 0.15v0.7c0 0.082843-0.06716 0.15-0.15 0.15h-0.7c-0.08284 0-0.15 0.067157-0.15 0.15v0.7c0 0.082842-0.067157 0.15-0.15 0.15h-0.7c-0.08284 0-0.15 0.067157-0.15 0.15v0.2 0.5c0 0.082843 0.06716 0.15 0.15 0.15h0.2 0.5c0.08284 0 0.15-0.067157 0.15-0.15v-0.7c0-0.082843 0.06716-0.15 0.15-0.15h0.55c0.16568 0 0.3 0.13431 0.3 0.3v1.55c0 0.082843 0.06716 0.15 0.15 0.15h0.55c0.16568 0 0.3-0.13431 0.3-0.3v-0.4zm-2-5.35v-0.2c0-0.082842-0.067157-0.15-0.15-0.15h-0.7c-0.08284 0-0.15 0.067157-0.15 0.15v0.7c0 0.082843 0.067157 0.15 0.15 0.15h0.7c0.08284 0 0.15-0.067157 0.15-0.15v-0.2zm1 27c0-0.1933 0.20147-0.35 0.45-0.35h0.6 1.8c0.08284 0 0.15 0.06716 0.15 0.15v0.2c0 0.4933-0.20147 0.65-0.45 0.65h-2.4c-0.08284 0-0.15-0.06716-0.15-0.15v-0.2zm-8-3.3v-0.9c0-0.08284 0.06716-0.15 0.15-0.15h0.2 0.35c0.16568 0 0.3-0.13432 0.3-0.3v-0.4-1c0-0.16568-0.13432-0.3-0.3-0.3h-1.55c-0.082842 0-0.15-0.06716-0.15-0.15v-0.2-0.5c0-0.08284 0.067157-0.15 0.15-0.15h0.2 0.35c0.16568 0 0.3-0.13432 0.3-0.3v-1.55c0-0.08284-0.06716-0.15-0.15-0.15h-0.2-0.5c-0.082842 0-0.15 0.06716-0.15 0.15v0.2 0.5c0 0.08284-0.067157 0.15-0.15 0.15h-0.7c-0.082842 0-0.15 0.06716-0.15 0.15v0.2c0 0.4933-0.20147 0.65-0.45 0.65h-0.6-1.8c-0.082843 0-0.15-0.06716-0.15-0.15v-0.7c0-0.08284-0.067157-0.15-0.15-0.15h-0.7c-0.082843 0-0.15 0.06716-0.15 0.15v0.55c0 0.16568-0.13431 0.3-0.3 0.3h-0.4-1c-0.16569 0-0.3-0.13432-0.3-0.3v-1.4c0-0.16568 0.13431-0.3 0.3-0.3h0.4 1.15c0.082843 0 0.15-0.06716 0.15-0.15v-0.7c0-0.08284 0.067157-0.15 0.15-0.15h0.55c0.16569 0 0.3 0.13432 0.3 0.3v1.25c0 0.24853 0.20147 0.45 0.45 0.45h0.6 1.8c0.082843 0 0.15-0.06716 0.15-0.15v-0.7c0-0.08284-0.067157-0.15-0.15-0.15h-0.2-0.5c-0.082843 0-0.15-0.06716-0.15-0.15v-0.2-0.5c0-0.08284-0.067157-0.15-0.15-0.15h-0.55c-0.16569 0-0.3-0.13432-0.3-0.3v-1.4c0-0.16568-0.13431-0.3-0.3-0.3h-1.55c-0.082843 0-0.15 0.067157-0.15 0.15v0.7c0 0.08284-0.067157 0.15-0.15 0.15h-0.7c-0.082843 0-0.15 0.067157-0.15 0.15v0.7c0 0.08284-0.067157 0.15-0.15 0.15h-0.55c-0.16569 0-0.3-0.13432-0.3-0.3v-1.55c0-0.08284-0.067157-0.15-0.15-0.15h-0.7c-0.082842 0-0.15-0.067157-0.15-0.15v-0.2-0.5c0-0.08284 0.067157-0.15 0.15-0.15h0.7c0.082842 0 0.15-0.06716 0.15-0.15v-0.7c0-0.08284 0.067157-0.15 0.15-0.15h0.55c0.16569 0 0.3-0.13432 0.3-0.3v-1.25c0-0.24853 0.20147-0.45 0.45-0.45h2.4c0.082843 0 0.15 0.06716 0.15 0.15v0.55c0 0.16568-0.13431 0.3-0.3 0.3h-0.4-1.15c-0.082843 0-0.15 0.06716-0.15 0.15v0.7c0 0.08284-0.067157 0.15-0.15 0.15h-0.2-0.35c-0.16569 0-0.3 0.13431-0.3 0.3v1.55c0 0.08284 0.067157 0.15 0.15 0.15h0.7c0.082842 0 0.15-0.067157 0.15-0.15v-0.55c0-0.16568 0.13431-0.3 0.3-0.3h1.55c0.082842 0 0.15-0.067157 0.15-0.15v-0.2c0-0.4933 0.20147-0.65 0.45-0.65h2.4c0.082843 0 0.15 0.06716 0.15 0.15v0.2 0.5c0 0.08284 0.067157 0.15 0.15 0.15h0.55c0.16569 0 0.3-0.13431 0.3-0.3v-1.55c0-0.08284 0.06716-0.15 0.15-0.15h0.2 0.35c0.16568 0 0.3 0.13432 0.3 0.3v0.4 1.15c0 0.08284 0.06716 0.15 0.15 0.15h0.7c0.08284 0 0.15 0.06716 0.15 0.15v0.2 0.5c0 0.08284 0.06716 0.15 0.15 0.15h0.7c0.08284 0 0.15 0.06716 0.15 0.15v0.2 0.5c0 0.08284-0.06716 0.15-0.15 0.15h-0.7c-0.08284 0-0.15 0.06716-0.15 0.15v0.2 0.5c0 0.08284 0.06716 0.15 0.15 0.15h0.2c0.4933 0 0.65 0.20147 0.65 0.45v0.6 1.8c0 0.08284 0.06716 0.15 0.15 0.15h0.2 0.5c0.08284 0 0.15 0.06716 0.15 0.15v0.2 0.5c0 0.08284-0.06716 0.15-0.15 0.15h-0.7c-0.08284 0-0.15-0.06716-0.15-0.15v-0.2-0.5c0-0.08284-0.06716-0.15-0.15-0.15h-0.2c-0.4933 0-0.65 0.20147-0.65 0.45v0.6 1.8c0 0.08284-0.06716 0.15-0.15 0.15h-0.2c-0.4933 0-0.65 0.20147-0.65 0.45v0.6 1.8c0 0.08284-0.06716 0.15-0.15 0.15h-0.2c-0.4933 0-0.65-0.20147-0.65-0.45v-0.6zm2-5.35v-0.55c0-0.08284-0.06716-0.15-0.15-0.15h-0.2-0.5c-0.08284 0-0.15-0.06716-0.15-0.15v-0.2-0.5c0-0.08284-0.06716-0.15-0.15-0.15h-0.7c-0.08284 0-0.15-0.06716-0.15-0.15v-0.55c0-0.16568 0.13432-0.3 0.3-0.3h1.55c0.08284 0 0.15-0.06716 0.15-0.15v-0.2-0.5c0-0.08284-0.06716-0.15-0.15-0.15h-0.7c-0.08284 0-0.15-0.06716-0.15-0.15v-0.2-0.5c0-0.08284-0.06716-0.15-0.15-0.15h-0.7c-0.08284 0-0.15 0.06716-0.15 0.15v0.55c0 0.16568-0.13432 0.3-0.3 0.3h-1.55c-0.082842 0-0.15-0.067157-0.15-0.15v-0.7c0-0.082843-0.067157-0.15-0.15-0.15h-0.7c-0.082843 0-0.15 0.06716-0.15 0.15v0.2 0.5c0 0.08284 0.067157 0.15 0.15 0.15h0.7c0.082843 0 0.15 0.067157 0.15 0.15v0.7c0 0.08284-0.067157 0.15-0.15 0.15h-0.7c-0.082843 0-0.15 0.06716-0.15 0.15v0.2c0 0.4933 0.20147 0.65 0.45 0.65h2.4c0.08284 0 0.15 0.06716 0.15 0.15v0.7c0 0.08284 0.06716 0.15 0.15 0.15h0.2 0.35c0.16568 0 0.3 0.13432 0.3 0.3v0.4 1.15c0 0.08284 0.06716 0.15 0.15 0.15h0.2 0.35c0.16568 0 0.3-0.13432 0.3-0.3v-0.4zm4-4.35v-0.2c0-0.08284 0.06716-0.15 0.15-0.15h0.7c0.08284 0 0.15 0.06716 0.15 0.15v0.7c0 0.08284-0.06716 0.15-0.15 0.15h-0.7c-0.08284 0-0.15-0.06716-0.15-0.15v-0.2zm13 0v-0.2c0-0.082842 0.067157-0.15 0.15-0.15h0.7c0.08284 0 0.15 0.06716 0.15 0.15v0.7c0 0.08284-0.06716 0.15-0.15 0.15h-0.7c-0.08284 0-0.15-0.06716-0.15-0.15l1e-6 -0.2v-0.3zm-28-3v-0.2c0-0.08284 0.067157-0.15 0.15-0.15h0.2 0.5c0.082842 0 0.15 0.06716 0.15 0.15v0.7c0 0.08284-0.067157 0.15-0.15 0.15h-0.2-0.5c-0.082843 0-0.15-0.067157-0.15-0.15v-0.2zm0-4v-0.2c0-0.082843 0.067157-0.15 0.15-0.15h0.7c0.082843 0 0.15 0.067157 0.15 0.15v0.7c0 0.08284-0.067157 0.15-0.15 0.15h-0.7c-0.082843 0-0.15-0.06716-0.15-0.15v-0.2zm0-5.9v-1.4c0-0.5799 0.4701-1.05 1.05-1.05h1.4 3.5c0.5799 0 1.05 0.4701 1.05 1.05v4.9c0 0.5799-0.4701 1.05-1.05 1.05h-1.4-3.5c-0.5799 0-1.05-0.4701-1.05-1.05v-1.4zm6 0.3v-1c0-0.41421-0.33579-0.75-0.75-0.75h-3.5c-0.41421 0-0.75 0.33579-0.75 0.75v3.5c0 0.41421 0.33579 0.75 0.75 0.75h3.5c0.41421 0 0.75-0.33579 0.75-0.75v-1zm-4 0.3v-0.6c0-0.24853 0.20147-0.45 0.45-0.45h2.1c0.24853 0 0.45 0.20147 0.45 0.45v2.1c0 0.24853-0.20147 0.45-0.45 0.45h-2.1c-0.24853 0-0.45-0.20147-0.45-0.45v-0.6zm20-0.6v-1.4c0-0.5799 0.4701-1.05 1.05-1.05h1.4 3.5c0.5799 0 1.05 0.4701 1.05 1.05v4.9c0 0.5799-0.4701 1.05-1.05 1.05h-1.4-3.5c-0.5799 0-1.05-0.4701-1.05-1.05v-1.4zm6 0.3v-1c0-0.41421-0.33579-0.75-0.75-0.75h-3.5c-0.41421 0-0.75 0.33579-0.75 0.75v1 2.5c0 0.41421 0.33579 0.75 0.75 0.75h3.5c0.41421 0 0.75-0.33579 0.75-0.75v-1zm-4 0.3v-0.6c0-0.24853 0.20147-0.45 0.45-0.45h2.1c0.24853 0 0.45 0.20147 0.45 0.45v2.1c0 0.24853-0.20147 0.45-0.45 0.45h-2.1c-0.24853 0-0.45-0.20147-0.45-0.45v-0.6z"
        stroke-width=".1" />
</svg>